<?xml version="1.0" encoding="UTF-8" standalone="no"?>
<svg
   xmlns:dc="http://purl.org/dc/elements/1.1/"
   xmlns:cc="http://creativecommons.org/ns#"
   xmlns:rdf="http://www.w3.org/1999/02/22-rdf-syntax-ns#"
   xmlns:svg="http://www.w3.org/2000/svg"
   xmlns="http://www.w3.org/2000/svg"
   xmlns:sodipodi="http://sodipodi.sourceforge.net/DTD/sodipodi-0.dtd"
   xmlns:inkscape="http://www.inkscape.org/namespaces/inkscape"
   height="512"
   width="512"
   viewBox="0 0 512 512"
   id="svg2"
   version="1.1"
   inkscape:version="0.91 r13725"
   sodipodi:docname="us.svg">
  <metadata
     id="metadata30">
    <rdf:RDF>
      <cc:Work
         rdf:about="">
        <dc:format>image/svg+xml</dc:format>
        <dc:type
           rdf:resource="http://purl.org/dc/dcmitype/StillImage" />
        <dc:title></dc:title>
      </cc:Work>
    </rdf:RDF>
  </metadata>
  <defs
     id="defs28">
    <clipPath
       clipPathUnits="userSpaceOnUse"
       id="clipPath4160">
      <circle
         style="opacity:1;fill:#000000;fill-opacity:1;stroke:none;stroke-width:3;stroke-miterlimit:4;stroke-dasharray:none;stroke-opacity:1"
         id="circle4162"
         cx="102.04349"
         cy="65"
         r="64.999367" />
    </clipPath>
  </defs>
  <sodipodi:namedview
     pagecolor="#ffffff"
     bordercolor="#666666"
     borderopacity="1"
     objecttolerance="10"
     gridtolerance="10"
     guidetolerance="10"
     inkscape:pageopacity="0"
     inkscape:pageshadow="2"
     inkscape:window-width="1689"
     inkscape:window-height="993"
     id="namedview26"
     showgrid="false"
     fit-margin-top="0"
     fit-margin-left="0"
     fit-margin-right="0"
     fit-margin-bottom="0"
     inkscape:zoom="0.4609375"
     inkscape:cx="-286.91522"
     inkscape:cy="258.1695"
     inkscape:window-x="0"
     inkscape:window-y="0"
     inkscape:window-maximized="0"
     inkscape:current-layer="svg2" />
  <g
     transform="matrix(3.9385,0,0,3.9385,-145.89827,-0.00249401)"
     id="g4"
     style="fill-rule:evenodd"
     clip-path="url(#clipPath4160)">
    <g
       id="g6"
       style="stroke-width:1pt">
      <path
         d="m 0,0 247,0 0,10 -247,0 z m 0,20 247,0 0,10 -247,0 z m 0,20 247,0 0,10 -247,0 z m 0,20 247,0 0,10 -247,0 z m 0,20 247,0 0,10 -247,0 z m 0,20 247,0 0,10 -247,0 z m 0,20 247,0 0,10 -247,0 z"
         id="path8"
         inkscape:connector-curvature="0"
         style="fill:#bd3d44" />
      <path
         d="m 0,10 247,0 0,10 -247,0 z m 0,20 247,0 0,10 -247,0 z m 0,20 247,0 0,10 -247,0 z m 0,20 247,0 0,10 -247,0 z m 0,20 247,0 0,10 -247,0 z m 0,20 247,0 0,10 -247,0 z"
         id="path10"
         inkscape:connector-curvature="0"
         style="fill:#ffffff" />
    </g>
    <path
       d="m 0,0 98.8,0 0,70 L 0,70 Z"
       id="path12"
       inkscape:connector-curvature="0"
       style="fill:#192f5d" />
    <g
       id="g14"
       style="fill:#ffffff">
      <path
         d="m 8.233,2.996 0.9,2.767 2.908,0 -2.353,1.71 0.899,2.766 -2.354,-1.71 -2.353,1.71 0.899,-2.766 -2.354,-1.71 2.91,0 z m 16.467,0 0.899,2.767 2.909,0 -2.353,1.71 0.898,2.766 -2.353,-1.709 -2.353,1.71 0.898,-2.766 -2.353,-1.71 2.909,0 z m 16.467,0 0.899,2.767 2.909,0 -2.353,1.71 0.899,2.766 -2.354,-1.71 -2.353,1.71 0.899,-2.766 -2.354,-1.71 2.91,0 z m 16.466,0 0.899,2.767 2.909,0 -2.353,1.71 0.899,2.766 -2.354,-1.71 -2.353,1.71 0.899,-2.766 -2.354,-1.71 2.91,0 z m 16.467,0 0.899,2.767 2.909,0 -2.354,1.71 0.9,2.766 -2.354,-1.709 -2.353,1.71 0.898,-2.766 -2.353,-1.71 2.909,0 z m 16.467,0 0.899,2.767 2.909,0 -2.354,1.71 0.9,2.766 -2.354,-1.71 -2.353,1.71 0.898,-2.766 -2.353,-1.71 2.909,0 z m -74.1,7 0.899,2.767 2.909,0 -2.353,1.71 0.898,2.766 -2.353,-1.71 -2.353,1.71 0.898,-2.766 -2.353,-1.71 2.909,0 z m 16.466,0 0.899,2.767 2.909,0 -2.353,1.71 0.899,2.766 -2.354,-1.71 -2.353,1.71 0.899,-2.766 -2.354,-1.71 2.91,0 z m 16.467,0 0.899,2.767 2.909,0 -2.353,1.71 0.899,2.766 -2.354,-1.71 -2.353,1.71 0.899,-2.766 -2.354,-1.71 2.91,0 z m 16.467,0 0.899,2.767 2.909,0 -2.353,1.71 0.898,2.766 -2.353,-1.71 -2.353,1.71 0.899,-2.766 -2.354,-1.71 2.91,0 z m 16.466,0 0.899,2.767 2.909,0 -2.354,1.71 0.9,2.766 -2.354,-1.71 -2.353,1.71 0.898,-2.766 -2.353,-1.71 2.909,0 z m -74.1,7 0.9,2.767 2.908,0 -2.353,1.71 0.899,2.766 -2.354,-1.71 -2.353,1.71 0.899,-2.766 -2.354,-1.71 2.91,0 z m 16.467,0 0.899,2.767 2.909,0 -2.353,1.71 0.898,2.766 -2.353,-1.71 -2.353,1.71 0.898,-2.766 -2.353,-1.71 2.909,0 z m 16.467,0 0.899,2.767 2.909,0 -2.353,1.71 0.899,2.766 -2.354,-1.71 -2.353,1.71 0.899,-2.766 -2.354,-1.71 2.91,0 z m 16.466,0 0.899,2.767 2.909,0 -2.353,1.71 0.899,2.766 -2.354,-1.71 -2.353,1.71 0.899,-2.766 -2.354,-1.71 2.91,0 z m 16.467,0 0.899,2.767 2.909,0 -2.354,1.71 0.9,2.766 -2.354,-1.71 -2.353,1.71 0.898,-2.766 -2.353,-1.71 2.909,0 z m 16.467,0 0.899,2.767 2.909,0 -2.354,1.71 0.9,2.766 -2.354,-1.71 -2.353,1.71 0.898,-2.766 -2.353,-1.71 2.909,0 z m -74.1,7 0.899,2.767 2.909,0 -2.353,1.71 0.898,2.766 -2.353,-1.71 -2.353,1.71 0.898,-2.766 -2.353,-1.71 2.909,0 z m 16.466,0 0.899,2.767 2.909,0 -2.353,1.71 0.899,2.766 -2.354,-1.71 -2.353,1.71 0.899,-2.766 -2.354,-1.71 2.91,0 z m 16.467,0 0.899,2.767 2.909,0 -2.353,1.71 0.899,2.766 -2.354,-1.71 -2.353,1.71 0.899,-2.766 -2.354,-1.71 2.91,0 z m 16.467,0 0.899,2.767 2.909,0 -2.353,1.71 0.898,2.766 -2.353,-1.71 -2.353,1.71 0.899,-2.766 -2.354,-1.71 2.91,0 z m 16.466,0 0.899,2.767 2.909,0 -2.354,1.71 0.9,2.766 -2.354,-1.71 -2.353,1.71 0.898,-2.766 -2.353,-1.71 2.909,0 z m -74.1,7 0.9,2.767 2.908,0 -2.353,1.71 0.899,2.766 -2.354,-1.71 -2.353,1.71 0.899,-2.766 -2.354,-1.71 2.91,0 z m 16.467,0 0.899,2.767 2.909,0 -2.353,1.71 0.898,2.766 -2.353,-1.71 -2.353,1.71 0.898,-2.766 -2.353,-1.71 2.909,0 z m 16.467,0 0.899,2.767 2.909,0 -2.353,1.71 0.899,2.766 -2.354,-1.71 -2.353,1.71 0.899,-2.766 -2.354,-1.71 2.91,0 z m 16.466,0 0.899,2.767 2.909,0 -2.353,1.71 0.899,2.766 -2.354,-1.71 -2.353,1.71 0.899,-2.766 -2.354,-1.71 2.91,0 z m 16.467,0 0.899,2.767 2.909,0 -2.354,1.71 0.9,2.766 -2.354,-1.71 -2.353,1.71 0.898,-2.766 -2.353,-1.71 2.909,0 z m 16.467,0 0.899,2.767 2.909,0 -2.354,1.71 0.9,2.766 -2.354,-1.71 -2.353,1.71 0.898,-2.766 -2.353,-1.71 2.909,0 z m -74.1,7 0.899,2.767 2.909,0 -2.353,1.71 0.898,2.766 -2.353,-1.71 -2.353,1.71 0.898,-2.766 -2.353,-1.71 2.909,0 z m 16.466,0 0.899,2.767 2.909,0 -2.353,1.71 0.899,2.766 -2.354,-1.71 -2.353,1.71 0.899,-2.766 -2.354,-1.71 2.91,0 z m 16.467,0 0.899,2.767 2.909,0 -2.353,1.71 0.899,2.766 -2.354,-1.71 -2.353,1.71 0.899,-2.766 -2.354,-1.71 2.91,0 z m 16.467,0 0.899,2.767 2.909,0 -2.353,1.71 0.898,2.766 -2.353,-1.71 -2.353,1.71 0.899,-2.766 -2.354,-1.71 2.91,0 z m 16.466,0 0.899,2.767 2.909,0 -2.354,1.71 0.9,2.766 -2.354,-1.71 -2.353,1.71 0.898,-2.766 -2.353,-1.71 2.909,0 z"
         id="path16"
         inkscape:connector-curvature="0" />
      <g
         id="g18">
        <path
           d="m 8.233,44.996 0.9,2.767 2.908,0 -2.353,1.71 0.899,2.766 -2.354,-1.71 -2.353,1.71 0.899,-2.766 -2.354,-1.71 2.91,0 z m 16.467,0 0.899,2.767 2.909,0 -2.353,1.71 0.898,2.766 -2.353,-1.71 -2.353,1.71 0.898,-2.766 -2.353,-1.71 2.909,0 z m 16.467,0 0.899,2.767 2.909,0 -2.353,1.71 0.899,2.766 -2.354,-1.71 -2.353,1.71 0.899,-2.766 -2.354,-1.71 2.91,0 z m 16.466,0 0.899,2.767 2.909,0 -2.353,1.71 0.899,2.766 -2.354,-1.71 -2.353,1.71 0.899,-2.766 -2.354,-1.71 2.91,0 z m 16.467,0 0.899,2.767 2.909,0 -2.354,1.71 0.9,2.766 -2.354,-1.71 -2.353,1.71 0.898,-2.766 -2.353,-1.71 2.909,0 z m 16.467,0 0.899,2.767 2.909,0 -2.354,1.71 0.9,2.766 -2.354,-1.71 -2.353,1.71 0.898,-2.766 -2.353,-1.71 2.909,0 z m -74.1,7 0.899,2.767 2.909,0 -2.353,1.71 0.898,2.766 -2.353,-1.71 -2.353,1.71 0.898,-2.766 -2.353,-1.71 2.909,0 z m 16.466,0 0.899,2.767 2.909,0 -2.353,1.71 0.899,2.766 -2.354,-1.71 -2.353,1.71 0.899,-2.766 -2.354,-1.71 2.91,0 z m 16.467,0 0.899,2.767 2.909,0 -2.353,1.71 0.899,2.766 -2.354,-1.71 -2.353,1.71 0.899,-2.766 -2.354,-1.71 2.91,0 z m 16.467,0 0.899,2.767 2.909,0 -2.353,1.71 0.898,2.766 -2.353,-1.71 -2.353,1.71 0.899,-2.766 -2.354,-1.71 2.91,0 z m 16.466,0 0.899,2.767 2.909,0 -2.354,1.71 0.9,2.766 -2.354,-1.71 -2.353,1.71 0.898,-2.766 -2.353,-1.71 2.909,0 z"
           id="path20"
           inkscape:connector-curvature="0" />
      </g>
      <g
         id="g22">
        <path
           d="m 8.233,58.996 0.9,2.767 2.908,0 -2.353,1.71 0.899,2.766 -2.354,-1.71 -2.353,1.71 0.899,-2.766 -2.354,-1.71 2.91,0 z m 16.467,0 0.899,2.767 2.909,0 -2.353,1.71 0.898,2.766 -2.353,-1.71 -2.353,1.71 0.898,-2.766 -2.353,-1.71 2.909,0 z m 16.467,0 0.899,2.767 2.909,0 -2.353,1.71 0.899,2.766 -2.354,-1.71 -2.353,1.71 0.899,-2.766 -2.354,-1.71 2.91,0 z m 16.466,0 0.899,2.767 2.909,0 -2.353,1.71 0.899,2.766 -2.354,-1.71 -2.353,1.71 0.899,-2.766 -2.354,-1.71 2.91,0 z m 16.467,0 0.899,2.767 2.909,0 -2.354,1.71 0.9,2.766 -2.354,-1.71 -2.353,1.71 0.898,-2.766 -2.353,-1.71 2.909,0 z m 16.467,0 0.899,2.767 2.909,0 -2.354,1.71 0.9,2.766 -2.354,-1.71 -2.353,1.71 0.898,-2.766 -2.353,-1.71 2.909,0 z"
           id="path24"
           inkscape:connector-curvature="0" />
      </g>
    </g>
  </g>
</svg>
